<svg xmlns="http://www.w3.org/2000/svg" version="1.1" xmlns:xlink="http://www.w3.org/1999/xlink" xmlns:svgjs="http://svgjs.dev/svgjs" width="1000" height="1000" viewBox="0 0 1000 1000"><rect width="1000" height="1000" fill="#50a060"></rect><g transform="matrix(0.7,0,0,0.7,149.57575757575756,282.1265587044535)"><svg viewBox="0 0 396 247" data-background-color="#50a060" preserveAspectRatio="xMidYMid meet" height="623" width="1000" xmlns="http://www.w3.org/2000/svg" xmlns:xlink="http://www.w3.org/1999/xlink"><g id="tight-bounds" transform="matrix(1,0,0,1,0.2400000000000091,-0.09999999999999432)"><svg viewBox="0 0 395.52 247.2" height="247.2" width="395.52"><g><svg></svg></g><g><svg viewBox="0 0 395.52 247.2" height="247.2" width="395.52"><g transform="matrix(1,0,0,1,75.54432,101.17802445752807)"><svg viewBox="0 0 244.43135999999998 44.84395108494386" height="44.84395108494386" width="244.43135999999998"><g><svg viewBox="0 0 244.43135999999998 44.84395108494386" height="44.84395108494386" width="244.43135999999998"><g><svg viewBox="0 0 331.79926323377583 60.87267170004641" height="44.84395108494386" width="244.43135999999998"><g transform="matrix(1,0,0,1,87.36790323377583,8.41293798459397)"><svg viewBox="0 0 244.43135999999998 44.04679573085847" height="44.04679573085847" width="244.43135999999998"><g id="textblocktransform"><svg viewBox="0 0 244.43135999999998 44.04679573085847" height="44.04679573085847" width="244.43135999999998" id="textblock"><g><svg viewBox="0 0 244.43135999999998 44.04679573085847" height="44.04679573085847" width="244.43135999999998"><g transform="matrix(1,0,0,1,0,0)"><svg width="244.43135999999998" viewBox="0 -34.95000076293945 193.94000244140625 34.95000076293945" height="44.04679573085847" data-palette-color="#454545">
<path d="M27.55-2.15L39.1-2.15 39.1 0 0 0 0-2.15 4.85-2.15 4.85-34.95 16.85-34.95Q26.25-34.95 31.3-30.38 36.35-25.8 36.35-17.5L36.35-17.5Q36.35-6.35 27.55-2.15L27.55-2.15ZM30.4-17.5L30.4-17.5Q30.4-29.5 16.65-29.5L16.65-29.5 10.75-29.5 10.75-5.55 17.3-5.55Q23.65-5.55 27.03-8.58 30.4-11.6 30.4-17.5ZM75.25-2.15L81.05-2.15 81.05 0 69.9 0 66.4-7.95 48.9-7.95 45.4 0 34.25 0 34.25-2.15 40.05-2.15 54.5-34.95 60.8-34.95 75.25-2.15ZM51.3-13.4L64-13.4 57.65-27.8 51.3-13.4ZM94.25-2.15L106.4-2.15 106.4 0 76.2 0 76.2-2.15 88.35-2.15 88.35-29.55 77.75-29.55 77.75-34.95 104.85-34.95 104.85-29.55 94.25-29.55 94.25-2.15ZM134.39-2.15L144.79-2.15 144.79 0 106.39 0 106.39-2.15 116.74-2.15Q110.79-6.3 110.79-15.3L110.79-15.3 110.79-34.95 116.69-34.95 116.69-15.55Q116.69-10.75 119.09-7.95 121.49-5.15 125.59-5.15 129.69-5.15 132.09-7.95 134.49-10.75 134.49-15.55L134.49-15.55 134.49-34.95 140.39-34.95 140.39-15.3Q140.39-6.25 134.39-2.15L134.39-2.15ZM189.09-2.15L193.94-2.15 193.94 0 183.19 0 183.19-27.3 170.99-3.05 167.69-3.05 155.54-27.3 155.54 0 144.79 0 144.79-2.15 149.64-2.15 149.64-34.95 158.84-34.95 169.39-13 179.94-34.95 189.09-34.95 189.09-2.15Z" opacity="1" transform="matrix(1,0,0,1,0,0)" fill="#454545" class="wordmark-text-0" data-fill-palette-color="primary" id="text-0"></path></svg></g></svg></g></svg></g></svg></g><g><svg viewBox="0 0 76.96951188481769 60.87267170004641" height="60.87267170004641" width="76.96951188481769"><g><svg xmlns="http://www.w3.org/2000/svg" xmlns:xlink="http://www.w3.org/1999/xlink" version="1.1" x="0" y="0" viewBox="5 16 87.24598693847656 69" enable-background="new 0 0 100 100" xml:space="preserve" height="60.87267170004641" width="76.96951188481769" class="icon-icon-0" data-fill-palette-color="accent" id="icon-0"><rect x="89" y="61.75" width="1" height="0.5" fill="#454545" data-fill-palette-color="accent"></rect><rect x="84" y="61.75" width="2" height="0.5" fill="#454545" data-fill-palette-color="accent"></rect><rect x="79" y="61.75" width="2" height="0.5" fill="#454545" data-fill-palette-color="accent"></rect><rect x="74" y="61.75" width="2" height="0.5" fill="#454545" data-fill-palette-color="accent"></rect><rect x="69" y="61.75" width="2" height="0.5" fill="#454545" data-fill-palette-color="accent"></rect><rect x="64" y="61.75" width="2" height="0.5" fill="#454545" data-fill-palette-color="accent"></rect><rect x="59" y="61.75" width="2" height="0.5" fill="#454545" data-fill-palette-color="accent"></rect><rect x="54" y="61.75" width="2" height="0.5" fill="#454545" data-fill-palette-color="accent"></rect><rect x="49" y="61.75" width="2" height="0.5" fill="#454545" data-fill-palette-color="accent"></rect><rect x="44" y="61.75" width="2" height="0.5" fill="#454545" data-fill-palette-color="accent"></rect><rect x="39" y="61.75" width="2" height="0.5" fill="#454545" data-fill-palette-color="accent"></rect><rect x="34" y="61.75" width="2" height="0.5" fill="#454545" data-fill-palette-color="accent"></rect><rect x="29" y="61.75" width="2" height="0.5" fill="#454545" data-fill-palette-color="accent"></rect><rect x="24" y="61.75" width="2" height="0.5" fill="#454545" data-fill-palette-color="accent"></rect><rect x="20" y="61.75" width="1" height="0.5" fill="#454545" data-fill-palette-color="accent"></rect><rect x="74" y="41.75" width="2" height="0.5" fill="#454545" data-fill-palette-color="accent"></rect><rect x="69" y="41.75" width="2" height="0.5" fill="#454545" data-fill-palette-color="accent"></rect><rect x="64" y="41.75" width="2" height="0.5" fill="#454545" data-fill-palette-color="accent"></rect><rect x="59" y="41.75" width="2" height="0.5" fill="#454545" data-fill-palette-color="accent"></rect><rect x="54" y="41.75" width="2" height="0.5" fill="#454545" data-fill-palette-color="accent"></rect><rect x="44" y="41.75" width="2" height="0.5" fill="#454545" data-fill-palette-color="accent"></rect><rect x="39" y="41.75" width="2" height="0.5" fill="#454545" data-fill-palette-color="accent"></rect><rect x="34" y="41.75" width="2" height="0.5" fill="#454545" data-fill-palette-color="accent"></rect><rect x="29" y="41.75" width="2" height="0.5" fill="#454545" data-fill-palette-color="accent"></rect><rect x="24" y="41.75" width="2" height="0.5" fill="#454545" data-fill-palette-color="accent"></rect><rect x="20" y="41.75" width="1" height="0.5" fill="#454545" data-fill-palette-color="accent"></rect><rect x="74" y="21.75" width="2" height="0.5" fill="#454545" data-fill-palette-color="accent"></rect><rect x="69" y="21.75" width="2" height="0.5" fill="#454545" data-fill-palette-color="accent"></rect><rect x="64" y="21.75" width="2" height="0.5" fill="#454545" data-fill-palette-color="accent"></rect><rect x="59" y="21.75" width="2" height="0.5" fill="#454545" data-fill-palette-color="accent"></rect><rect x="54" y="21.75" width="2" height="0.5" fill="#454545" data-fill-palette-color="accent"></rect><rect x="49" y="21.75" width="2" height="0.5" fill="#454545" data-fill-palette-color="accent"></rect><rect x="44" y="21.75" width="2" height="0.5" fill="#454545" data-fill-palette-color="accent"></rect><rect x="39" y="21.75" width="2" height="0.5" fill="#454545" data-fill-palette-color="accent"></rect><rect x="34" y="21.75" width="2" height="0.5" fill="#454545" data-fill-palette-color="accent"></rect><rect x="29" y="21.75" width="2" height="0.5" fill="#454545" data-fill-palette-color="accent"></rect><rect x="24" y="21.75" width="2" height="0.5" fill="#454545" data-fill-palette-color="accent"></rect><rect x="20" y="21.75" width="1" height="0.5" fill="#454545" data-fill-palette-color="accent"></rect><rect x="54.75" y="17" width="0.5" height="1" fill="#454545" data-fill-palette-color="accent"></rect><rect x="54.75" y="66" width="0.5" height="1" fill="#454545" data-fill-palette-color="accent"></rect><rect x="37.25" y="17" width="0.5" height="1" fill="#454545" data-fill-palette-color="accent"></rect><rect x="37.25" y="61" width="0.5" height="2" fill="#454545" data-fill-palette-color="accent"></rect><rect x="37.25" y="56" width="0.5" height="2" fill="#454545" data-fill-palette-color="accent"></rect><rect x="37.25" y="51" width="0.5" height="2" fill="#454545" data-fill-palette-color="accent"></rect><rect x="37.25" y="46" width="0.5" height="2" fill="#454545" data-fill-palette-color="accent"></rect><rect x="37.25" y="36" width="0.5" height="2" fill="#454545" data-fill-palette-color="accent"></rect><rect x="37.25" y="31" width="0.5" height="2" fill="#454545" data-fill-palette-color="accent"></rect><rect x="37.25" y="26" width="0.5" height="2" fill="#454545" data-fill-palette-color="accent"></rect><rect x="37.25" y="21" width="0.5" height="2" fill="#454545" data-fill-palette-color="accent"></rect><rect x="37.25" y="66" width="0.5" height="1" fill="#454545" data-fill-palette-color="accent"></rect><rect x="72.25" y="17" width="0.5" height="1" fill="#454545" data-fill-palette-color="accent"></rect><rect x="72.25" y="61" width="0.5" height="2" fill="#454545" data-fill-palette-color="accent"></rect><rect x="72.25" y="56" width="0.5" height="2" fill="#454545" data-fill-palette-color="accent"></rect><rect x="72.25" y="51" width="0.5" height="2" fill="#454545" data-fill-palette-color="accent"></rect><rect x="72.25" y="46" width="0.5" height="2" fill="#454545" data-fill-palette-color="accent"></rect><rect x="72.25" y="41" width="0.5" height="2" fill="#454545" data-fill-palette-color="accent"></rect><rect x="72.25" y="36" width="0.5" height="2" fill="#454545" data-fill-palette-color="accent"></rect><rect x="72.25" y="26" width="0.5" height="2" fill="#454545" data-fill-palette-color="accent"></rect><rect x="72.25" y="21" width="0.5" height="2" fill="#454545" data-fill-palette-color="accent"></rect><rect x="72.25" y="66" width="0.5" height="1" fill="#454545" data-fill-palette-color="accent"></rect><path d="M86 77H58v-1c0-1.654-1.346-3-3-3s-3 1.346-3 3v1H24c-1.1 0-2 0.899-2 2s0.9 2 2 2h28v1c0 1.653 1.346 3 3 3s3-1.347 3-3v-1h28c1.1 0 2-0.899 2-2S87.1 77 86 77zM57 82c0 1.101-0.9 2-2 2s-2-0.899-2-2v-4-2c0-1.101 0.9-2 2-2s2 0.899 2 2V82zM86 80H58v-2h28c0.553 0 1 0.448 1 1S86.553 80 86 80zM56 76v6c0 0.552-0.447 1-1 1-0.552 0-1-0.448-1-1v-6c0-0.552 0.448-1 1-1C55.553 75 56 75.448 56 76z" fill="#454545" data-fill-palette-color="accent"></path><path d="M9 21v18.001H8c-1.654 0-3 1.346-3 3 0 1.655 1.346 3.001 3 3.001h1v18c0 1.1 0.899 2 2 2s2-0.9 2-2v-18h1c1.653 0 3-1.346 3-3.001 0-1.654-1.347-3-3-3h-1V21c0-1.1-0.899-2-2-2S9 19.9 9 21zM14 40.001c1.101 0 2 0.9 2 2s-0.899 2.001-2 2.001h-4H8c-1.101 0-2-0.901-2-2.001s0.899-2 2-2H14zM12 21v18.001h-2V21c0-0.553 0.448-1 1-1S12 20.447 12 21zM8 41.001h6c0.552 0 1 0.447 1 1 0 0.552-0.448 1-1 1H8c-0.552 0-1-0.448-1-1C7 41.448 7.448 41.001 8 41.001z" fill="#454545" data-fill-palette-color="accent"></path><g fill="#454545" data-fill-palette-color="accent"><path d="M55.404 37.004c-1.68-0.354-3.002-1.68-3.35-3.363l-7.138 7.102-9.783-10.008c-0.439 2.262-2.247 4.031-4.527 4.42l9.824 10.051-7.01 6.974c1.634 0.508 2.841 1.942 3.015 3.696l7.313-7.276 4.613 4.718c0.462-2.254 2.287-4.005 4.574-4.373l-4.702-4.81L55.404 37.004z" fill="#454545" data-fill-palette-color="accent"></path><path d="M86.971 39.376l-10.445-3.095 9.18-9.179c-2.279-0.394-4.083-2.167-4.52-4.431L69.622 34.235l-9.188-2.723c0.121 0.398 0.205 0.813 0.205 1.251 0 1.33-0.611 2.504-1.553 3.3l6.719 1.99-10.921 10.92c2.265 0.436 4.036 2.239 4.431 4.52L72.707 40.1l12.916 3.827c-0.121-0.399-0.205-0.813-0.205-1.252C85.418 41.345 86.027 40.171 86.971 39.376z" fill="#454545" data-fill-palette-color="accent"></path></g><path d="M89.754 40.186c-0.013 0-0.025 0.004-0.038 0.004-1.354 0.021-2.452 1.126-2.452 2.485 0 0.857 0.437 1.615 1.098 2.063 0.396 0.27 0.877 0.428 1.394 0.428 1.373 0 2.49-1.118 2.49-2.491C92.244 41.302 91.127 40.186 89.754 40.186z" fill="#454545" data-fill-palette-color="accent"></path><rect x="54.75" y="61" width="0.5" height="2" fill="#454545" data-fill-palette-color="accent"></rect><rect x="54.75" y="26" width="0.5" height="2" fill="#454545" data-fill-palette-color="accent"></rect><rect x="54.75" y="21" width="0.5" height="2" fill="#454545" data-fill-palette-color="accent"></rect><rect x="54.75" y="41" width="0.5" height="2" fill="#454545" data-fill-palette-color="accent"></rect><path d="M57.697 30.702c-0.398-0.27-0.879-0.428-1.396-0.428-0.013 0-0.024 0.004-0.038 0.004-0.408 0.006-0.789 0.118-1.13 0.3-0.429 0.23-0.778 0.579-1.012 1.007-0.19 0.353-0.312 0.75-0.312 1.179 0 1.373 1.117 2.49 2.49 2.49s2.49-1.117 2.49-2.49C58.793 31.907 58.357 31.15 57.697 30.702z" fill="#454545" data-fill-palette-color="accent"></path><path d="M32.144 53.813c-0.138 0-0.271 0.021-0.402 0.041-1.182 0.193-2.089 1.215-2.089 2.451 0 1.372 1.118 2.489 2.491 2.489 0.227 0 0.443-0.04 0.652-0.099 1.056-0.287 1.839-1.245 1.839-2.393C34.635 54.93 33.517 53.813 32.144 53.813z" fill="#454545" data-fill-palette-color="accent"></path><path d="M86 18c2.206 0 4 1.794 4 4s-1.794 4-4 4-4-1.794-4-4S83.794 18 86 18M86 16c-3.313 0-6 2.687-6 6s2.687 6 6 6 6-2.687 6-6S89.313 16 86 16L86 16z" fill="#454545" data-fill-palette-color="accent"></path><path d="M54 49c2.206 0 4 1.794 4 4s-1.794 4-4 4-4-1.794-4-4S51.794 49 54 49M54 47c-3.313 0-6 2.687-6 6 0 3.313 2.687 6 6 6s6-2.688 6-6C60 49.687 57.313 47 54 47L54 47z" fill="#454545" data-fill-palette-color="accent"></path><path d="M30 26c2.206 0 4 1.794 4 4s-1.794 4-4 4-4-1.794-4-4S27.794 26 30 26M30 24c-3.313 0-6 2.687-6 6 0 3.313 2.687 6 6 6s6-2.688 6-6C36 26.687 33.313 24 30 24L30 24z" fill="#454545" data-fill-palette-color="accent"></path></svg></g></svg></g></svg></g></svg></g></svg></g><g><path d="M0 123.6c0-68.262 55.338-123.6 123.6-123.6 59.254 0 108.77 41.696 120.806 97.348l-1.497 0c-12.011-54.837-60.866-95.885-119.309-95.885-67.454 0-122.137 54.683-122.137 122.137 0 67.454 54.683 122.137 122.137 122.137 58.442 0 107.298-41.047 119.309-95.885h1.497c-12.037 55.652-61.552 97.348-120.806 97.348-68.262 0-123.6-55.338-123.6-123.6z" fill="#454545" stroke="transparent" data-fill-palette-color="tertiary"></path></g></svg></g><defs></defs></svg><rect width="395.52" height="247.2" fill="none" stroke="none" visibility="hidden"></rect></g></svg></g></svg>